<svg xmlns="http://www.w3.org/2000/svg" version="1.1" xmlns:xlink="http://www.w3.org/1999/xlink" xmlns:svgjs="http://svgjs.com/svgjs" width="1440" height="750" preserveAspectRatio="none" viewBox="0 0 1440 750">
    <g mask="url(&quot;#SvgjsMask3820&quot;)" fill="none">
        <rect width="1440" height="750" x="0" y="0" fill="url(#SvgjsRadialGradient3821)"></rect>
        <path d="M1346 724L1345 444" stroke-width="10" stroke="url(#SvgjsLinearGradient3822)" stroke-linecap="round" class="Up"></path>
        <path d="M833 585L832 109" stroke-width="8" stroke="url(#SvgjsLinearGradient3823)" stroke-linecap="round" class="Down"></path>
        <path d="M1040 451L1039 912" stroke-width="10" stroke="url(#SvgjsLinearGradient3822)" stroke-linecap="round" class="Up"></path>
        <path d="M652 736L651 357" stroke-width="6" stroke="url(#SvgjsLinearGradient3822)" stroke-linecap="round" class="Up"></path>
        <path d="M86 98L85 440" stroke-width="10" stroke="url(#SvgjsLinearGradient3823)" stroke-linecap="round" class="Down"></path>
        <path d="M1067 134L1066 501" stroke-width="8" stroke="url(#SvgjsLinearGradient3822)" stroke-linecap="round" class="Up"></path>
        <path d="M884 208L883 -12" stroke-width="6" stroke="url(#SvgjsLinearGradient3822)" stroke-linecap="round" class="Up"></path>
        <path d="M307 380L306 781" stroke-width="10" stroke="url(#SvgjsLinearGradient3823)" stroke-linecap="round" class="Down"></path>
        <path d="M1391 503L1390 886" stroke-width="8" stroke="url(#SvgjsLinearGradient3822)" stroke-linecap="round" class="Up"></path>
        <path d="M104 440L103 758" stroke-width="10" stroke="url(#SvgjsLinearGradient3823)" stroke-linecap="round" class="Down"></path>
        <path d="M218 468L217 -19" stroke-width="10" stroke="url(#SvgjsLinearGradient3822)" stroke-linecap="round" class="Up"></path>
        <path d="M520 701L519 253" stroke-width="10" stroke="url(#SvgjsLinearGradient3823)" stroke-linecap="round" class="Down"></path>
        <path d="M179 372L178 31" stroke-width="6" stroke="url(#SvgjsLinearGradient3822)" stroke-linecap="round" class="Up"></path>
        <path d="M54 708L53 344" stroke-width="10" stroke="url(#SvgjsLinearGradient3822)" stroke-linecap="round" class="Up"></path>
        <path d="M1144 155L1143 382" stroke-width="10" stroke="url(#SvgjsLinearGradient3822)" stroke-linecap="round" class="Up"></path>
        <path d="M253 692L252 150" stroke-width="6" stroke="url(#SvgjsLinearGradient3823)" stroke-linecap="round" class="Down"></path>
        <path d="M1303 451L1302 132" stroke-width="10" stroke="url(#SvgjsLinearGradient3822)" stroke-linecap="round" class="Up"></path>
        <path d="M165 65L164 -335" stroke-width="10" stroke="url(#SvgjsLinearGradient3822)" stroke-linecap="round" class="Up"></path>
        <path d="M664 410L663 890" stroke-width="6" stroke="url(#SvgjsLinearGradient3822)" stroke-linecap="round" class="Up"></path>
        <path d="M3 624L2 1130" stroke-width="10" stroke="url(#SvgjsLinearGradient3822)" stroke-linecap="round" class="Up"></path>
        <path d="M636 397L635 3" stroke-width="6" stroke="url(#SvgjsLinearGradient3822)" stroke-linecap="round" class="Up"></path>
        <path d="M168 324L167 30" stroke-width="6" stroke="url(#SvgjsLinearGradient3822)" stroke-linecap="round" class="Up"></path>
        <path d="M442 694L441 951" stroke-width="8" stroke="url(#SvgjsLinearGradient3822)" stroke-linecap="round" class="Up"></path>
        <path d="M226 399L225 705" stroke-width="6" stroke="url(#SvgjsLinearGradient3822)" stroke-linecap="round" class="Up"></path>
        <path d="M791 743L790 496" stroke-width="6" stroke="url(#SvgjsLinearGradient3822)" stroke-linecap="round" class="Up"></path>
        <path d="M154 665L153 1122" stroke-width="6" stroke="url(#SvgjsLinearGradient3822)" stroke-linecap="round" class="Up"></path>
        <path d="M1101 661L1100 1024" stroke-width="8" stroke="url(#SvgjsLinearGradient3822)" stroke-linecap="round" class="Up"></path>
        <path d="M1314 420L1313 717" stroke-width="8" stroke="url(#SvgjsLinearGradient3822)" stroke-linecap="round" class="Up"></path>
        <path d="M1281 228L1280 593" stroke-width="8" stroke="url(#SvgjsLinearGradient3823)" stroke-linecap="round" class="Down"></path>
        <path d="M798 543L797 -5" stroke-width="6" stroke="url(#SvgjsLinearGradient3823)" stroke-linecap="round" class="Down"></path>
        <path d="M1253 423L1252 984" stroke-width="6" stroke="url(#SvgjsLinearGradient3823)" stroke-linecap="round" class="Down"></path>
        <path d="M332 652L331 936" stroke-width="8" stroke="url(#SvgjsLinearGradient3823)" stroke-linecap="round" class="Down"></path>
        <path d="M1037 427L1036 92" stroke-width="10" stroke="url(#SvgjsLinearGradient3822)" stroke-linecap="round" class="Up"></path>
        <path d="M640 23L639 247" stroke-width="10" stroke="url(#SvgjsLinearGradient3822)" stroke-linecap="round" class="Up"></path>
        <path d="M637 331L636 18" stroke-width="6" stroke="url(#SvgjsLinearGradient3823)" stroke-linecap="round" class="Down"></path>
        <path d="M286 183L285 -173" stroke-width="6" stroke="url(#SvgjsLinearGradient3822)" stroke-linecap="round" class="Up"></path>
    </g>
    <defs>
        <mask id="SvgjsMask3820">
            <rect width="1440" height="750" fill="#ffffff"></rect>
        </mask>
        <radialGradient cx="50%" cy="50%" r="811.8" gradientUnits="userSpaceOnUse" id="SvgjsRadialGradient3821">
            <stop stop-color="rgba(12, 132, 100, 1)" offset="0"></stop>
            <stop stop-color="rgba(14, 42, 71, 1)" offset="1"></stop>
        </radialGradient>
        <linearGradient x1="0%" y1="100%" x2="0%" y2="0%" id="SvgjsLinearGradient3822">
            <stop stop-color="rgba(28, 138, 142, 0)" offset="0"></stop>
            <stop stop-color="rgba(28, 138, 142, 0.39)" offset="1"></stop>
        </linearGradient>
        <linearGradient x1="0%" y1="0%" x2="0%" y2="100%" id="SvgjsLinearGradient3823">
            <stop stop-color="rgba(28, 138, 142, 0)" offset="0"></stop>
            <stop stop-color="rgba(28, 138, 142, 0.39)" offset="1"></stop>
        </linearGradient>
    </defs>
</svg>